<?xml version="1.0" encoding="UTF-8"?>
<svg viewBox="0 0 24 24" width="36" height="36" fill="currentColor" xmlns="http://www.w3.org/2000/svg">
    <path d="M16 11C18.21 11 20 9.21 20 7C20 4.79 18.21 3 16 3C13.79 3 12 4.79 12 7C12 9.21 13.79 11 16 11ZM8 11C10.21 11 12 9.21 12 7C12 4.79 10.21 3 8 3C5.79 3 4 4.79 4 7C4 9.21 5.79 11 8 11ZM8 13C5.33 13 0 14.34 0 17V21H16V17C16 14.34 10.67 13 8 13ZM16 13C15.71 13 15.38 13.02 15.03 13.05C16.19 13.89 17 15.13 17 17V21H24V17C24 14.34 18.67 13 16 13Z" fill="currentColor"/>
</svg>
