<?xml version="1.0" encoding="UTF-8"?>
<svg viewBox="0 0 24 24" width="36" height="36" fill="currentColor" xmlns="http://www.w3.org/2000/svg">
    <path d="M18 2H6C4.89 2 4 2.89 4 4V20C4 21.11 4.89 22 6 22H18C19.11 22 20 21.11 20 20V4C20 2.89 19.11 2 18 2ZM18 20H6V4H18V20ZM12 9C11.17 9 10.5 8.33 10.5 7.5C10.5 6.67 11.17 6 12 6C12.83 6 13.5 6.67 13.5 7.5C13.5 8.33 12.83 9 12 9Z"/>
    <path d="M8 12H10V14H8V12ZM8 16H10V18H8V16ZM12 12H14V14H12V12ZM12 16H14V18H12V16ZM16 12H18V14H16V12ZM16 16H18V18H16V16Z" opacity="0.6" fill="currentColor"/>
</svg>
